<svg  viewBox="0 0 24 24" fill="currentColor" xmlns="http://www.w3.org/2000/svg">
    <path d="M10.976 9C10.976 9.26522 10.8706 9.51957 10.6831 9.70711C10.4956 9.89464 10.2412 10 9.976 10C9.71078 10 9.45643 9.89464 9.26889 9.70711C9.08135 9.51957 8.976 9.26522 8.976 9C8.976 8.73478 9.08135 8.48043 9.26889 8.29289C9.45643 8.10536 9.71078 8 9.976 8C10.2412 8 10.4956 8.10536 10.6831 8.29289C10.8706 8.48043 10.976 8.73478 10.976 9ZM13.971 10C14.2362 10 14.4906 9.89464 14.6781 9.70711C14.8656 9.51957 14.971 9.26522 14.971 9C14.971 8.73478 14.8656 8.48043 14.6781 8.29289C14.4906 8.10536 14.2362 8 13.971 8C13.7058 8 13.4514 8.10536 13.2639 8.29289C13.0764 8.48043 12.971 8.73478 12.971 9C12.971 9.26522 13.0764 9.51957 13.2639 9.70711C13.4514 9.89464 13.7058 10 13.971 10Z" />
    <path fill-rule="evenodd" clip-rule="evenodd" d="M19 21V10C19 9.08075 18.8189 8.1705 18.4672 7.32122C18.1154 6.47194 17.5998 5.70026 16.9497 5.05025C16.2997 4.40024 15.5281 3.88463 14.6788 3.53284C13.8295 3.18106 12.9193 3 12 3C11.0807 3 10.1705 3.18106 9.32122 3.53284C8.47194 3.88463 7.70026 4.40024 7.05025 5.05025C6.40024 5.70026 5.88463 6.47194 5.53284 7.32122C5.18106 8.1705 5 9.08075 5 10V21H7.828L9.243 19.586L10.657 21H13.343L14.757 19.586L16.172 21H19ZM17 10C17 8.67392 16.4732 7.40215 15.5355 6.46447C14.5979 5.52678 13.3261 5 12 5C10.6739 5 9.40215 5.52678 8.46447 6.46447C7.52678 7.40215 7 8.67392 7 10V19L9.243 16.757L12 19.515L14.757 16.757L17 19V10Z" />
</svg>
